HIERARCHY
ROOT Hips
{
	OFFSET 0.000000 121.760803 0.000000
	CHANNELS 6 Xposition Yposition Zposition Xrotation Yrotation Zrotation 
	JOINT Spine
	{
		OFFSET 0.072000 7.257294 -0.789700
		CHANNELS 3 Xrotation Yrotation Zrotation
		JOINT Spine1
		{
			OFFSET 0.000000 12.508769 -0.658067
			CHANNELS 3 Xrotation Yrotation Zrotation
			JOINT Spine1_split
			{
				OFFSET 0.000000 12.508769 -0.658067
				CHANNELS 3 Xrotation Yrotation Zrotation
				JOINT Spine2
				{
					OFFSET 0.000000 12.508769 -0.658067
					CHANNELS 3 Xrotation Yrotation Zrotation
					JOINT Neck
					{
						OFFSET 0.000000 14.033295 7.520400
						CHANNELS 3 Xrotation Yrotation Zrotation
						JOINT Head
						{
							OFFSET 0.000000 8.198502 5.703100
							CHANNELS 3 Xrotation Yrotation Zrotation
							JOINT HeadTop_End
							{
								OFFSET 0.000000 17.760803 13.332701
								CHANNELS 3 Xrotation Yrotation Zrotation
								End Site
								{
									OFFSET 0.000000 0.000000 0.000000
								}
							}
						}
					}
					JOINT LeftShoulder
					{
						OFFSET 6.292450 5.785301 -0.669000
						CHANNELS 3 Xrotation Yrotation Zrotation
						JOINT LeftShoulder_split
						{
							OFFSET 6.292450 5.785301 -0.669000
							CHANNELS 3 Xrotation Yrotation Zrotation
							JOINT LeftArm
							{
								OFFSET 13.907140 -6.093903 1.965100
								CHANNELS 3 Xrotation Yrotation Zrotation
								JOINT LeftForeArm
								{
									OFFSET 34.140198 0.000000 0.000000
									CHANNELS 3 Xrotation Yrotation Zrotation
									JOINT LeftHand
									{
										OFFSET 40.960209 0.000000 0.000000
										CHANNELS 3 Xrotation Yrotation Zrotation
										JOINT LeftHandThumb1
										{
											OFFSET 10.006996 -7.170425 9.573125
											CHANNELS 3 Xrotation Yrotation Zrotation
											JOINT LeftHandThumb2
											{
												OFFSET 1.835007 -1.059448 1.059443
												CHANNELS 3 Xrotation Yrotation Zrotation
												JOINT LeftHandThumb3
												{
													OFFSET 2.112267 -1.219513 1.219518
													CHANNELS 3 Xrotation Yrotation Zrotation
													JOINT LeftHandThumb4
													{
														OFFSET 4.843811 -2.796570 2.796576
														CHANNELS 3 Xrotation Yrotation Zrotation
														End Site
														{
															OFFSET 0.000000 0.000000 0.000000
														}
													}
												}
											}
										}
										JOINT LeftHandIndex1
										{
											OFFSET 18.389847 -0.922348 4.596882
											CHANNELS 3 Xrotation Yrotation Zrotation
											JOINT LeftHandIndex2
											{
												OFFSET 4.711273 0.000000 0.000000
												CHANNELS 3 Xrotation Yrotation Zrotation
												JOINT LeftHandIndex3
												{
													OFFSET 2.886131 0.000000 0.000000
													CHANNELS 3 Xrotation Yrotation Zrotation
													JOINT LeftHandIndex4
													{
														OFFSET 6.145912 0.000000 0.000000
														CHANNELS 3 Xrotation Yrotation Zrotation
														End Site
														{
															OFFSET 0.000000 0.000000 0.000000
														}
													}
												}
											}
										}
										JOINT LeftHandMiddle1
										{
											OFFSET 18.013008 0.000000 0.000000
											CHANNELS 3 Xrotation Yrotation Zrotation
											JOINT LeftHandMiddle2
											{
												OFFSET 4.946693 0.000000 0.000000
												CHANNELS 3 Xrotation Yrotation Zrotation
												JOINT LeftHandMiddle3
												{
													OFFSET 3.342232 0.000000 0.000000
													CHANNELS 3 Xrotation Yrotation Zrotation
													JOINT LeftHandMiddle4
													{
														OFFSET 4.461754 0.000000 0.000000
														CHANNELS 3 Xrotation Yrotation Zrotation
														End Site
														{
															OFFSET 0.000000 0.000000 0.000000
														}
													}
												}
											}
										}
										JOINT LeftHandRing1
										{
											OFFSET 15.849892 -0.102921 -4.126150
											CHANNELS 3 Xrotation Yrotation Zrotation
											JOINT LeftHandRing2
											{
												OFFSET 3.527054 0.000000 0.000000
												CHANNELS 3 Xrotation Yrotation Zrotation
												JOINT LeftHandRing3
												{
													OFFSET 2.961098 0.000000 0.000000
													CHANNELS 3 Xrotation Yrotation Zrotation
													JOINT LeftHandRing4
													{
														OFFSET 4.927200 0.000000 0.000000
														CHANNELS 3 Xrotation Yrotation Zrotation
														End Site
														{
															OFFSET 0.000000 0.000000 0.000000
														}
													}
												}
											}
										}
										JOINT LeftHandPinky1
										{
											OFFSET 12.791824 -0.832031 -6.799156
											CHANNELS 3 Xrotation Yrotation Zrotation
											JOINT LeftHandPinky2
											{
												OFFSET 3.327133 0.000000 0.000000
												CHANNELS 3 Xrotation Yrotation Zrotation
												JOINT LeftHandPinky3
												{
													OFFSET 3.014900 0.000000 0.000000
													CHANNELS 3 Xrotation Yrotation Zrotation
													JOINT LeftHandPinky4
													{
														OFFSET 5.847786 0.000000 0.000000
														CHANNELS 3 Xrotation Yrotation Zrotation
														End Site
														{
															OFFSET 0.000000 0.000000 0.000000
														}
													}
												}
											}
										}
									}
								}
							}
						}
					}
					JOINT RightShoulder
					{
						OFFSET -6.292450 5.785301 -0.669000
						CHANNELS 3 Xrotation Yrotation Zrotation
						JOINT RightShoulder_split
						{
							OFFSET -6.292450 5.785301 -0.669000
							CHANNELS 3 Xrotation Yrotation Zrotation
							JOINT RightArm
							{
								OFFSET -13.907140 -6.093903 1.965100
								CHANNELS 3 Xrotation Yrotation Zrotation
								JOINT RightForeArm
								{
									OFFSET -34.140198 0.000000 0.000000
									CHANNELS 3 Xrotation Yrotation Zrotation
									JOINT RightHand
									{
										OFFSET -40.960209 0.000000 0.000000
										CHANNELS 3 Xrotation Yrotation Zrotation
										JOINT RightHandThumb1
										{
											OFFSET -10.007050 -7.170456 9.573117
											CHANNELS 3 Xrotation Yrotation Zrotation
											JOINT RightHandThumb2
											{
												OFFSET -1.835007 -1.059448 1.059443
												CHANNELS 3 Xrotation Yrotation Zrotation
												JOINT RightHandThumb3
												{
													OFFSET -2.112267 -1.219513 1.219518
													CHANNELS 3 Xrotation Yrotation Zrotation
													JOINT RightHandThumb4
													{
														OFFSET -4.843834 -2.796585 2.796590
														CHANNELS 3 Xrotation Yrotation Zrotation
														End Site
														{
															OFFSET 0.000000 0.000000 0.000000
														}
													}
												}
											}
										}
										JOINT RightHandIndex1
										{
											OFFSET -18.389870 -0.922424 4.596786
											CHANNELS 3 Xrotation Yrotation Zrotation
											JOINT RightHandIndex2
											{
												OFFSET -4.711273 0.000000 0.000000
												CHANNELS 3 Xrotation Yrotation Zrotation
												JOINT RightHandIndex3
												{
													OFFSET -2.886131 0.000000 0.000000
													CHANNELS 3 Xrotation Yrotation Zrotation
													JOINT RightHandIndex4
													{
														OFFSET -6.145920 0.000000 0.000000
														CHANNELS 3 Xrotation Yrotation Zrotation
														End Site
														{
															OFFSET 0.000000 0.000000 0.000000
														}
													}
												}
											}
										}
										JOINT RightHandMiddle1
										{
											OFFSET -18.013008 0.000000 0.000000
											CHANNELS 3 Xrotation Yrotation Zrotation
											JOINT RightHandMiddle2
											{
												OFFSET -4.946693 0.000000 0.000000
												CHANNELS 3 Xrotation Yrotation Zrotation
												JOINT RightHandMiddle3
												{
													OFFSET -3.342232 0.000000 0.000000
													CHANNELS 3 Xrotation Yrotation Zrotation
													JOINT RightHandMiddle4
													{
														OFFSET -4.461754 0.000000 0.000000
														CHANNELS 3 Xrotation Yrotation Zrotation
														End Site
														{
															OFFSET 0.000000 0.000000 0.000000
														}
													}
												}
											}
										}
										JOINT RightHandRing1
										{
											OFFSET -15.849876 -0.102936 -4.126237
											CHANNELS 3 Xrotation Yrotation Zrotation
											JOINT RightHandRing2
											{
												OFFSET -3.527054 0.000000 0.000000
												CHANNELS 3 Xrotation Yrotation Zrotation
												JOINT RightHandRing3
												{
													OFFSET -2.961098 0.000000 0.000000
													CHANNELS 3 Xrotation Yrotation Zrotation
													JOINT RightHandRing4
													{
														OFFSET -4.927200 0.000000 0.000000
														CHANNELS 3 Xrotation Yrotation Zrotation
														End Site
														{
															OFFSET 0.000000 0.000000 0.000000
														}
													}
												}
											}
										}
										JOINT RightHandPinky1
										{
											OFFSET -12.791786 -0.832077 -6.799222
											CHANNELS 3 Xrotation Yrotation Zrotation
											JOINT RightHandPinky2
											{
												OFFSET -3.327133 0.000000 0.000000
												CHANNELS 3 Xrotation Yrotation Zrotation
												JOINT RightHandPinky3
												{
													OFFSET -3.014900 0.000000 0.000000
													CHANNELS 3 Xrotation Yrotation Zrotation
													JOINT RightHandPinky4
													{
														OFFSET -5.847786 0.000000 0.000000
														CHANNELS 3 Xrotation Yrotation Zrotation
														End Site
														{
															OFFSET 0.000000 0.000000 0.000000
														}
													}
												}
											}
										}
									}
								}
							}
						}
					}
				}
			}
		}
	}
	JOINT LeftUpLeg
	{
		OFFSET 13.026900 -6.336304 -1.092800
		CHANNELS 3 Xrotation Yrotation Zrotation
		JOINT LeftLeg
		{
			OFFSET 0.524474 -46.096886 9.782700
			CHANNELS 3 Xrotation Yrotation Zrotation
			JOINT LeftFoot
			{
				OFFSET -0.524474 -53.427422 -12.948200
				CHANNELS 3 Xrotation Yrotation Zrotation
				JOINT LeftToeBase
				{
					OFFSET 0.192200 -14.009700 16.364100
					CHANNELS 3 Xrotation Yrotation Zrotation
					JOINT LeftToe_End
					{
						OFFSET -1.784700 -0.561700 9.474800
						CHANNELS 3 Xrotation Yrotation Zrotation
						End Site
						{
							OFFSET 0.000000 0.000000 0.000000
						}
					}
				}
			}
		}
	}
	JOINT RightUpLeg
	{
		OFFSET -12.883000 -6.336304 -1.092800
		CHANNELS 3 Xrotation Yrotation Zrotation
		JOINT RightLeg
		{
			OFFSET -0.524587 -46.096825 9.782800
			CHANNELS 3 Xrotation Yrotation Zrotation
			JOINT RightFoot
			{
				OFFSET 0.524587 -53.427383 -12.948300
				CHANNELS 3 Xrotation Yrotation Zrotation
				JOINT RightToeBase
				{
					OFFSET -0.192200 -14.009700 16.364100
					CHANNELS 3 Xrotation Yrotation Zrotation
					JOINT RightToe_End
					{
						OFFSET 1.784700 -0.561700 9.474800
						CHANNELS 3 Xrotation Yrotation Zrotation
						End Site
						{
							OFFSET 0.000000 0.000000 0.000000
						}
					}
				}
			}
		}
	}
}
MOTION
Frames: 4
Frame Time: 0.016667
0.182725 113.877014 0.521175 -9.667708 5.521231 2.445946 15.972481 -4.983099 -0.212021 2.828928 -1.297233 -0.520220 0.000000 0.000000 0.000000 2.839534 -1.291909 -0.480963 -10.214223 -0.289804 1.928839 0.642530 3.946486 -0.951178 -0.000000 -0.000000 0.000000 1.783135 -2.817867 -5.367187 0.000000 0.000000 0.000000 8.347187 -11.449690 -68.845944 0.000010 -33.539033 0.000016 -23.608518 5.693670 2.838380 -3.469767 3.607324 7.883176 9.703631 22.223515 2.891190 -5.879057 9.699139 15.674861 0.000001 -0.000000 -0.000002 0.162356 3.429612 -10.498169 0.209650 1.554735 -15.358568 0.209648 1.554736 -15.358575 -0.000000 -0.000000 -0.000001 0.362545 4.206376 -18.344216 0.474609 2.311791 -23.200233 0.474607 2.311792 -23.200235 0.000000 0.000000 0.000001 0.689025 4.991709 -26.673262 0.865734 3.066786 -31.521439 0.865732 3.066787 -31.521453 -0.000000 -0.000000 0.000000 0.902506 5.377891 -30.995354 1.110592 3.433632 -35.838166 1.110592 3.433628 -35.838153 0.000000 0.000000 -0.000000 0.815657 9.465462 15.261697 0.000000 0.000000 0.000000 -2.962832 1.768749 67.176700 0.000004 20.011863 -0.000009 1.318000 -7.062438 -8.055864 -1.986177 -5.435660 -3.761596 8.766468 -20.697683 -3.062070 -5.504771 -5.510970 -14.718521 0.000000 0.000001 0.000002 2.057122 -6.108259 55.293578 5.419356 -4.594511 99.429400 3.163281 -4.411568 71.271248 -0.000002 0.000000 -0.000000 2.592850 -6.426549 62.973429 4.946627 -4.648184 93.567315 3.098024 -4.388966 70.420575 0.000000 -0.000000 -0.000003 2.854989 -6.549356 66.538583 4.919144 -4.649816 93.228209 2.921295 -4.322230 68.093906 0.000002 0.000000 -0.000001 1.542110 -5.696823 47.168214 2.898960 -4.313208 67.797352 2.788745 -4.266695 66.323937 0.000001 -0.000000 0.000001 -17.588605 5.474461 0.537381 48.203958 -5.062572 -0.730478 5.227189 -0.050376 -1.366844 -1.795228 -0.000000 -0.000002 0.000001 0.000000 0.000000 -5.297013 -6.966813 -1.525970 27.069718 6.008307 3.481888 -12.129263 1.116898 -6.476178 -1.006360 -0.000002 0.000000 -0.000000 0.000000 0.000000 
0.224486 114.269279 2.577120 -9.505054 4.747300 2.735260 15.849314 -4.765660 -0.718453 2.864634 -1.219265 -0.580729 0.000000 0.000000 0.000000 2.874599 -1.216439 -0.545703 -10.293795 -0.276139 1.920122 0.424422 4.055672 -0.967052 -0.000000 -0.000000 -0.000000 1.743981 -3.170768 -5.307284 0.000000 0.000000 0.000000 8.560800 -9.744657 -69.768620 -0.000009 -31.640749 -0.000014 -20.354022 6.201448 1.849370 -3.469768 3.607323 7.883177 9.703629 22.223516 2.891191 -5.879055 9.699141 15.674859 0.000001 0.000002 -0.000003 0.162357 3.429611 -10.498167 0.209650 1.554735 -15.358561 0.209648 1.554737 -15.358573 0.000000 -0.000000 -0.000001 0.362545 4.206377 -18.344216 0.474609 2.311790 -23.200233 0.474607 2.311792 -23.200242 0.000000 0.000000 0.000003 0.689026 4.991709 -26.673262 0.865734 3.066787 -31.521443 0.865732 3.066787 -31.521456 0.000000 0.000000 0.000000 0.902506 5.377892 -30.995361 1.110592 3.433633 -35.838163 1.110593 3.433627 -35.838156 -0.000000 -0.000001 -0.000000 0.830230 9.367766 15.335610 0.000000 0.000000 0.000000 -2.994204 1.838904 66.790453 0.000001 20.328286 0.000021 1.692692 -7.849708 -8.272422 -1.986177 -5.435659 -3.761594 8.766468 -20.697684 -3.062066 -5.504773 -5.510972 -14.718528 -0.000002 0.000004 0.000005 2.057123 -6.108258 55.293571 5.419357 -4.594513 99.429407 3.163283 -4.411567 71.271248 0.000000 -0.000000 -0.000000 2.592853 -6.426549 62.973429 4.946627 -4.648184 93.567322 3.098024 -4.388964 70.420575 0.000002 0.000001 -0.000003 2.854990 -6.549356 66.538583 4.919144 -4.649816 93.228203 2.921297 -4.322231 68.093906 -0.000000 0.000000 -0.000000 1.542111 -5.696821 47.168214 2.898961 -4.313208 67.797359 2.788745 -4.266695 66.323937 -0.000002 -0.000000 0.000001 -18.351829 6.018794 -1.210514 44.240990 -5.536112 -0.747531 5.721988 -0.171350 -0.193812 -2.242493 -0.003841 0.491589 -0.000001 0.000000 0.000000 -3.762414 -7.053487 -1.921981 26.095684 6.074016 3.530254 -12.798013 2.016542 -6.459137 -1.006365 -0.000004 -0.000000 -0.000000 -0.000000 0.000000 
0.332462 114.586159 4.742508 -9.318819 4.058383 2.919286 15.659272 -4.554939 -1.086042 2.925965 -1.153219 -0.636157 0.000000 0.000000 0.000000 2.934974 -1.152664 -0.605375 -10.373087 -0.263189 1.911384 0.194516 4.155701 -0.959679 0.000000 -0.000000 0.000000 1.706082 -3.362186 -5.359654 0.000000 0.000000 0.000000 8.566211 -8.219121 -70.564815 0.000003 -29.568927 0.000010 -16.683220 6.782379 0.412764 -3.469768 3.607323 7.883178 9.703630 22.223518 2.891192 -5.879055 9.699138 15.674857 -0.000001 0.000000 -0.000004 0.162356 3.429612 -10.498169 0.209650 1.554735 -15.358567 0.209648 1.554736 -15.358572 0.000000 -0.000000 0.000004 0.362545 4.206376 -18.344215 0.474610 2.311790 -23.200235 0.474606 2.311793 -23.200240 -0.000000 0.000000 -0.000002 0.689026 4.991708 -26.673262 0.865734 3.066787 -31.521439 0.865731 3.066785 -31.521453 0.000000 0.000001 -0.000000 0.902506 5.377892 -30.995361 1.110592 3.433632 -35.838163 1.110592 3.433628 -35.838156 -0.000000 0.000001 -0.000001 0.840508 9.299993 15.386820 0.000000 0.000000 0.000000 -3.179688 1.962936 66.379228 0.000002 20.310423 -0.000016 1.979819 -8.025347 -8.406095 -1.986177 -5.435659 -3.761598 8.766469 -20.697681 -3.062068 -5.504772 -5.510968 -14.718521 -0.000002 0.000002 0.000003 2.057123 -6.108259 55.293571 5.419358 -4.594512 99.429400 3.163282 -4.411568 71.271248 -0.000002 -0.000000 0.000000 2.592851 -6.426549 62.973429 4.946627 -4.648184 93.567315 3.098023 -4.388965 70.420575 0.000001 0.000000 -0.000002 2.854989 -6.549357 66.538576 4.919142 -4.649818 93.228209 2.921294 -4.322230 68.093906 -0.000001 -0.000001 0.000003 1.542111 -5.696822 47.168214 2.898963 -4.313209 67.797352 2.788744 -4.266697 66.323937 -0.000001 -0.000000 -0.000001 -19.461787 6.118736 -2.462173 40.761316 -5.410121 -0.718180 5.494796 0.304818 -0.515548 -1.795226 -0.000001 0.000003 0.000004 -0.000000 -0.000000 -2.186726 -7.063167 -2.229112 25.119534 6.124445 3.581256 -13.540172 2.751514 -6.381026 -1.006360 -0.000003 0.000002 0.000000 -0.000000 -0.000000 
0.456450 115.149254 7.082481 -9.117947 3.300739 3.208000 15.453785 -4.351481 -1.576327 2.992097 -1.077589 -0.696962 0.000000 0.000000 0.000000 3.000081 -1.079577 -0.670915 -10.460873 -0.248840 1.903442 -0.064419 4.273281 -0.953785 -0.000000 0.000000 0.000000 1.662389 -3.586408 -5.415228 0.000000 0.000000 0.000000 8.625615 -6.507513 -71.432352 -0.000007 -27.273625 0.000005 -12.557438 7.323398 -1.225756 -3.469768 3.607323 7.883176 9.703630 22.223518 2.891191 -5.879055 9.699144 15.674862 0.000002 -0.000000 -0.000002 0.162357 3.429611 -10.498169 0.209651 1.554735 -15.358565 0.209647 1.554736 -15.358570 -0.000000 0.000001 -0.000002 0.362545 4.206376 -18.344215 0.474610 2.311790 -23.200232 0.474607 2.311794 -23.200238 -0.000000 0.000000 -0.000000 0.689026 4.991709 -26.673262 0.865733 3.066785 -31.521439 0.865732 3.066788 -31.521449 -0.000000 0.000000 -0.000000 0.902506 5.377892 -30.995357 1.110592 3.433633 -35.838166 1.110592 3.433628 -35.838156 0.000000 0.000001 -0.000001 0.852756 9.220248 15.447176 0.000000 0.000000 0.000000 -3.645495 2.192714 65.984217 0.000007 19.518041 -0.000012 2.258821 -7.623027 -8.499333 -1.986177 -5.435660 -3.761596 8.766469 -20.697683 -3.062069 -5.504773 -5.510972 -14.718521 -0.000001 0.000000 0.000003 2.057121 -6.108259 55.293571 5.419356 -4.594512 99.429407 3.163280 -4.411567 71.271248 -0.000000 0.000001 0.000000 2.592851 -6.426549 62.973422 4.946627 -4.648186 93.567315 3.098024 -4.388967 70.420569 -0.000000 0.000000 0.000001 2.854991 -6.549357 66.538576 4.919145 -4.649817 93.228209 2.921296 -4.322230 68.093906 -0.000001 0.000000 0.000000 1.542110 -5.696822 47.168211 2.898963 -4.313208 67.797352 2.788743 -4.266701 66.323937 -0.000001 0.000001 -0.000002 -19.892965 6.155642 -3.873063 35.608174 -5.272023 -0.719482 5.635899 0.889964 -0.542787 -1.795217 0.000000 -0.000000 -0.000001 -0.000000 0.000000 -0.159001 -7.017163 -2.634703 23.389085 6.132256 3.623365 -14.014975 3.488690 -6.200713 -1.002992 -0.000003 -0.000001 -0.000000 -0.000000 0.000000 
